# xmcd
#
# Track frame offsets:
#	300
#	15233
#	28002
#	41636
#	51346
#	69484
#	81965
#	96032
#	109468
#	126918
#	142719
#	154880
#	168482
#
# Disc length: 2410 seconds
#
# Revision: 1
# Processed by: cddbd v1.4PL0 Copyright (c) Steve Scherf et al.
# Submitted via: audiograbber 1.81.03
#
DISCID=ab09660d
DTITLE=Rickie Mann - The Little Things
DYEAR=2003
DGENRE=Blues
TTITLE0=Getting Use To Lonely
TTITLE1=The Things You Make Me Do
TTITLE2=I'm Gonna Love You
TTITLE3=Junkstore Junkie
TTITLE4=I'll Give
TTITLE5=Cry
TTITLE6=Last Time Blues
TTITLE7=Hand in Hand
TTITLE8=Powerful Love
TTITLE9=Princess Cinderella
TTITLE10=You Can Do No Wrong
TTITLE11=Jill the Ripper
TTITLE12=The Little Things
EXTD=
EXTT0=
EXTT1=
EXTT2=
EXTT3=
EXTT4=
EXTT5=
EXTT6=
EXTT7=
EXTT8=
EXTT9=
EXTT10=
EXTT11=
EXTT12=
PLAYORDER=
